M48
; DRILL file {KiCad 7.0.5} date Thu Feb 22 12:23:59 2024
; FORMAT={-:-/ absolute / inch / decimal}
; #@! TF.CreationDate,2024-02-22T12:23:59+00:00
; #@! TF.GenerationSoftware,Kicad,Pcbnew,7.0.5
; #@! TF.FileFunction,Plated,1,2,PTH
FMAT,2
INCH
; #@! TA.AperFunction,Plated,PTH,ViaDrill
T1C0.0157
; #@! TA.AperFunction,Plated,PTH,ViaDrill
T2C0.0315
; #@! TA.AperFunction,Plated,PTH,ComponentDrill
T3C0.0315
; #@! TA.AperFunction,Plated,PTH,ComponentDrill
T4C0.0335
; #@! TA.AperFunction,Plated,PTH,ComponentDrill
T5C0.0394
; #@! TA.AperFunction,Plated,PTH,ComponentDrill
T6C0.1260
%
G90
G05
T1
X1.76Y-2.79
X2.09Y-3.53
X2.0906Y-4.44
X2.0906Y-4.83
X2.15Y-3.58
X2.1589Y-1.996
X2.1906Y-4.91
X2.2Y-3.66
X2.25Y-3.56
X2.2606Y-4.91
X2.2727Y-2.226
X2.2906Y-4.09
X2.3006Y-4.88
X2.32Y-3.37
X2.33Y-3.69
X2.3306Y-5.39
X2.3406Y-4.44
X2.3506Y-4.79
X2.37Y-3.87
X2.39Y-3.25
X2.39Y-3.37
X2.41Y-3.83
X2.47Y-3.41
X2.53Y-2.77
X2.53Y-3.5
X2.5427Y-2.056
X2.58Y-2.83
X2.58Y-3.52
X2.59Y-4.82
X2.98Y-3.93
X2.98Y-4.59
X3.32Y-2.1773
X3.37Y-4.64
X3.38Y-2.1518
X3.41Y-4.18
X3.45Y-5.05
X3.46Y-2.1262
X3.48Y-4.07
X3.54Y-2.05
X3.6Y-3.97
X3.6Y-4.24
X3.6Y-4.91
X3.64Y-4.01
X3.81Y-4.87
X3.93Y-3.72
X4.1137Y-3.72
X4.1137Y-4.64
X4.2Y-3.87
X4.2Y-4.88
X4.2557Y-2.13
X4.36Y-3.83
X4.36Y-4.91
X4.45Y-3.29
X4.51Y-4.07
X4.6Y-2.38
X4.7Y-2.44
X4.7981Y-2.5481
X4.9Y-2.21
X4.9Y-2.49
X4.9Y-4.01
X4.95Y-2.66
X4.96Y-2.05
X5.0Y-2.16
X5.0Y-2.6
X5.0Y-3.98
X5.27Y-3.29
T2
X2.66Y-2.91
X2.66Y-3.72
X2.96Y-2.87
X3.24Y-2.72
X3.44Y-2.87
X3.65Y-2.29
X3.95Y-4.19
X5.06Y-4.77
X5.18Y-2.29
X5.18Y-5.2191
X5.18Y-5.51
X5.31Y-4.19
X5.39Y-3.0
X5.64Y-1.69
X5.708Y-4.558
X6.09Y-3.93
X6.17Y-3.6906
X6.29Y-3.19
X6.29Y-4.438
T3
X1.88Y-2.71
X1.88Y-2.91
X1.88Y-3.31
X1.88Y-4.03
X2.18Y-2.71
X2.18Y-2.91
X2.18Y-3.31
X2.18Y-4.03
X2.6404Y-5.0796
X2.6404Y-5.3796
X2.7404Y-5.0796
X2.7404Y-5.3796
X2.8404Y-5.0796
X2.8404Y-5.3796
X2.8804Y-4.0096
X2.8804Y-4.3096
X2.9404Y-5.0796
X2.9404Y-5.3796
X2.9804Y-4.0096
X2.9804Y-4.3096
X3.0804Y-4.0096
X3.0804Y-4.3096
X3.1404Y-3.1896
X3.1404Y-3.4896
X3.1804Y-4.0096
X3.1804Y-4.3096
X3.2404Y-3.1896
X3.2404Y-3.4896
X3.3404Y-3.1896
X3.3404Y-3.4896
X3.4404Y-3.1896
X3.4404Y-3.4896
T4
X5.64Y-1.87
X5.64Y-2.47
X5.94Y-1.87
X5.94Y-2.17
X5.94Y-2.37
X5.94Y-2.47
T5
X1.06Y-2.1664
X1.06Y-2.2755
X1.06Y-2.3845
X1.06Y-2.4936
X1.06Y-2.6026
X1.06Y-2.7117
X1.06Y-2.8207
X1.06Y-2.9298
X1.06Y-3.0389
X1.06Y-3.1479
X1.06Y-3.257
X1.06Y-3.366
X1.06Y-3.4751
X1.06Y-3.5841
X1.06Y-3.6932
X1.06Y-3.8022
X1.06Y-3.9113
X1.06Y-4.0204
X1.06Y-4.1294
X1.1718Y-2.2209
X1.1718Y-2.33
X1.1718Y-2.4391
X1.1718Y-2.5481
X1.1718Y-2.6572
X1.1718Y-2.7662
X1.1718Y-2.8753
X1.1718Y-2.9843
X1.1718Y-3.0934
X1.1718Y-3.2024
X1.1718Y-3.3115
X1.1718Y-3.4206
X1.1718Y-3.5296
X1.1718Y-3.6387
X1.1718Y-3.7477
X1.1718Y-3.8568
X1.1718Y-3.9658
X1.1718Y-4.0749
X3.6Y-5.16
X3.6Y-5.76
X3.7Y-5.16
X3.7Y-5.76
X3.8Y-5.16
X3.8Y-5.76
X3.9Y-5.16
X3.9Y-5.76
X4.0Y-5.16
X4.0Y-5.76
X4.06Y-1.69
X4.06Y-1.79
X4.1Y-5.16
X4.1Y-5.76
X4.16Y-1.69
X4.16Y-1.79
X4.2Y-5.16
X4.2Y-5.76
X4.26Y-1.69
X4.26Y-1.79
X4.3Y-5.16
X4.3Y-5.76
X4.36Y-1.69
X4.36Y-1.79
X4.4Y-5.16
X4.4Y-5.76
X4.46Y-1.69
X4.46Y-1.79
X4.5Y-5.16
X4.5Y-5.76
X4.56Y-1.69
X4.56Y-1.79
X4.6Y-5.16
X4.6Y-5.76
X4.66Y-1.69
X4.66Y-1.79
X4.7Y-5.16
X4.7Y-5.76
X4.76Y-1.69
X4.76Y-1.79
X4.8Y-5.16
X4.8Y-5.76
X4.86Y-1.69
X4.86Y-1.79
X4.9Y-5.16
X4.9Y-5.76
X4.96Y-1.69
X4.96Y-1.79
X5.0Y-5.16
X5.0Y-5.76
T6
X1.1159Y-1.8979
X1.1159Y-4.3979
T0
M30
